<svg width="20" height="20" viewBox="0 0 20 20" fill="none" xmlns="http://www.w3.org/2000/svg">
<g clip-path="url(#clip0_5_65)">
<path d="M10 0C4.48583 0 0 4.48583 0 10C0 15.5142 4.48583 20 10 20C15.5142 20 20 15.5142 20 10C20 4.48583 15.5142 0 10 0ZM14.7208 13.8225L14.2858 14.3225C13.8267 14.7825 13.2217 15 12.6192 15C9.52417 15 5 10.7142 5 7.38083C5 6.77833 5.2175 6.17333 5.6775 5.71417L6.1775 5.27917C6.54917 4.9075 7.1525 4.9075 7.52417 5.27917L8.3575 6.36417C8.72917 6.73583 8.72917 7.33917 8.3575 7.71083L7.64833 8.60167C8.39917 10.4717 9.6725 11.6933 11.3983 12.3517L12.2892 11.6425C12.6608 11.2708 13.2642 11.2708 13.6358 11.6425L14.7208 12.4758C15.0925 12.8475 15.0925 13.4508 14.7208 13.8225Z" fill="#D88345"/>
</g>
<defs>
<clipPath id="clip0_5_65">
<rect width="20" height="20" fill="white"/>
</clipPath>
</defs>
</svg>
