<svg width="20" height="20" viewBox="0 0 20 20" fill="none" xmlns="http://www.w3.org/2000/svg">
<g clip-path="url(#clip0_5_67)">
<path d="M7.08333 6.725C7.21667 6.69 7.35417 6.66583 7.49833 6.66583L12.4925 6.66167H12.4942C12.6442 6.66167 12.7883 6.68833 12.9292 6.72583L10.83 8.825C10.3908 9.26417 9.62333 9.26417 9.18333 8.825L7.0825 6.72417L7.08333 6.725ZM12.0083 10.0042C11.4742 10.5392 10.7633 10.8333 10.0075 10.8333C9.25167 10.8333 8.54 10.5383 8.00583 10.0042L5.89917 7.89667C5.86083 8.03667 5.83417 8.18083 5.83417 8.3325V10.8317C5.83417 11.2775 6.0075 11.6958 6.3225 12.0108C6.6375 12.3258 7.05583 12.4983 7.50083 12.4983L12.495 12.4958C13.4142 12.4958 14.1608 11.7475 14.1608 10.8292V8.32917C14.1608 8.18583 14.1367 8.04667 14.1017 7.91167L12.0083 10.0042ZM20 10C20 15.5142 15.5142 20 10 20C4.48583 20 0 15.5142 0 10C0 4.48583 4.48583 0 10 0C15.5142 0 20 4.48583 20 10ZM15.8275 8.32833C15.8275 7.4375 15.48 6.6 14.85 5.97C14.22 5.34167 13.3833 4.995 12.4942 4.995H12.4908L7.49667 4.99917C5.66083 5.00083 4.16667 6.49583 4.16667 8.3325V10.8317C4.16667 11.7225 4.51333 12.56 5.14333 13.1892C5.77333 13.8183 6.61 14.165 7.5 14.165H7.5025L12.4967 14.1625C14.3333 14.1617 15.8275 12.6658 15.8275 10.8292V8.32833Z" fill="#D88345"/>
</g>
<defs>
<clipPath id="clip0_5_67">
<rect width="20" height="20" fill="white"/>
</clipPath>
</defs>
</svg>
